# xmcd
#
# Track frame offsets:
#	183
#	30128
#	44905
#	56248
#	74933
#	88778
#	104138
#	120048
#	134208
#	148795
#	163093
#	176803
#	191195
#	204378
#	223335
#	239248
#	267140
#
# Disc length: 3745 seconds
#
# Revision: 1
# Processed by: cddbd v1.5.2PL0 Copyright (c) Steve Scherf et al.
# Submitted via: audiograbber 1.83.01
#
DISCID=230e9f11
DTITLE=CAP - Country Songs Vol.4
DYEAR=1900
DGENRE=Country
TTITLE0=Sutter's Mill
TTITLE1=Handy Man
TTITLE2=It's So Easy
TTITLE3=Stumblin' In
TTITLE4=No Gettin' Over Me
TTITLE5=Achy Breaky Heart
TTITLE6=Take It Easy
TTITLE7=Me&You&A Dog Named Boo
TTITLE8=Puff
TTITLE9=Take Me, Home Coutry Road
TTITLE10=9.999,999 Tears
TTITLE11=Tie A Yellow Ribbon Roud The Old Oak Tree
TTITLE12=Rhinestone Cowboy
TTITLE13=Islands In The Stream
TTITLE14=Sundown
TTITLE15=Hotel California
TTITLE16=500 Miles
EXTD=Emofion. ACD-99001
EXTT0=
EXTT1=
EXTT2=
EXTT3=
EXTT4=
EXTT5=
EXTT6=
EXTT7=
EXTT8=
EXTT9=
EXTT10=
EXTT11=
EXTT12=
EXTT13=
EXTT14=
EXTT15=
EXTT16=
PLAYORDER=
